<?xml version="1.0" encoding="UTF-8"?>
<!DOCTYPE svg PUBLIC "-//W3C//DTD SVG 1.1//EN" "http://www.w3.org/Graphics/SVG/1.1/DTD/svg11.dtd">
<svg xmlns="http://www.w3.org/2000/svg" version="1.1" width="512px" height="512px" style="shape-rendering:geometricPrecision; text-rendering:geometricPrecision; image-rendering:optimizeQuality; fill-rule:evenodd; clip-rule:evenodd" xmlns:xlink="http://www.w3.org/1999/xlink">
<g><path style="opacity:0.976" fill="#36393d" d="M 170.5,14.5 C 227.168,14.3333 283.834,14.5 340.5,15C 354.441,19.2735 363.274,28.4402 367,42.5C 367.5,50.4931 367.666,58.4931 367.5,66.5C 383.503,66.3334 399.503,66.5001 415.5,67C 445.877,72.3768 464.044,90.2101 470,120.5C 470.167,174.167 470.333,227.833 470.5,281.5C 470.654,337.197 470.154,392.864 469,448.5C 462.132,472.702 446.632,488.202 422.5,495C 366.869,496.156 311.203,496.656 255.5,496.5C 199.797,496.656 144.131,496.156 88.5,495C 64.3685,488.202 48.8685,472.702 42,448.5C 40.8457,392.864 40.3457,337.197 40.5,281.5C 40.6667,227.833 40.8333,174.167 41,120.5C 46.9564,90.2101 65.1231,72.3768 95.5,67C 111.497,66.5001 127.497,66.3334 143.5,66.5C 139.835,47.999 144.835,32.499 158.5,20C 162.475,17.8537 166.475,16.0204 170.5,14.5 Z"/></g>
<g><path style="opacity:1" fill="#d7e4e9" d="M 458.5,157.5 C 449.835,142.686 437.169,132.853 420.5,128C 400.87,126.59 381.203,126.09 361.5,126.5C 361.666,116.828 361.5,107.161 361,97.5C 357.491,85.9913 349.991,78.4913 338.5,75C 310.833,74.8333 283.167,74.6667 255.5,74.5C 226.453,74.3493 197.453,74.8493 168.5,76C 159.088,80.4092 152.922,87.5759 150,97.5C 149.5,107.161 149.334,116.828 149.5,126.5C 146.5,126.5 143.5,126.5 140.5,126.5C 131.396,112.542 118.729,108.042 102.5,113C 95.2838,116.716 89.9505,122.216 86.5,129.5C 71.6008,134.602 60.2674,143.935 52.5,157.5C 52.3334,144.829 52.5001,132.162 53,119.5C 58.5,98 72,84.5 93.5,79C 113.256,78.9761 132.923,78.3095 152.5,77C 153.701,76.0975 154.535,74.9308 155,73.5C 155.068,62.4283 155.735,51.4283 157,40.5C 160.006,34.0731 164.84,29.5731 171.5,27C 227.167,26.3333 282.833,26.3333 338.5,27C 345.61,29.2998 350.777,33.7998 354,40.5C 355.265,51.4283 355.932,62.4283 356,73.5C 356.785,75.286 357.951,76.786 359.5,78C 377.5,78.3333 395.5,78.6667 413.5,79C 437.204,82.7665 452.038,96.2665 458,119.5C 458.5,132.162 458.667,144.829 458.5,157.5 Z"/></g>
<g><path style="opacity:1" fill="#c4d6dc" d="M 458.5,157.5 C 458.667,251.834 458.5,346.167 458,440.5C 453.869,463.634 440.369,478.134 417.5,484C 365.501,484.5 313.501,484.667 261.5,484.5C 261.664,481.813 261.497,479.146 261,476.5C 257.333,472.5 253.667,472.5 250,476.5C 249.503,479.146 249.336,481.813 249.5,484.5C 197.166,484.667 144.832,484.5 92.5,484C 70.2342,477.735 57.0675,463.235 53,440.5C 52.5,346.167 52.3333,251.834 52.5,157.5C 60.2674,143.935 71.6008,134.602 86.5,129.5C 82.74,140.73 84.4066,151.063 91.5,160.5C 99.9906,177.445 112.657,181.278 129.5,172C 133.219,169.388 135.552,165.888 136.5,161.5C 145.158,150.575 146.491,138.908 140.5,126.5C 143.5,126.5 146.5,126.5 149.5,126.5C 149.334,116.828 149.5,107.161 150,97.5C 152.922,87.5759 159.088,80.4092 168.5,76C 197.453,74.8493 226.453,74.3493 255.5,74.5C 283.167,74.6667 310.833,74.8333 338.5,75C 349.991,78.4913 357.491,85.9913 361,97.5C 361.5,107.161 361.666,116.828 361.5,126.5C 381.203,126.09 400.87,126.59 420.5,128C 437.169,132.853 449.835,142.686 458.5,157.5 Z"/></g>
<g><path style="opacity:1" fill="#35393c" d="M 140.5,126.5 C 146.491,138.908 145.158,150.575 136.5,161.5C 121.224,173.766 106.224,173.433 91.5,160.5C 84.4066,151.063 82.74,140.73 86.5,129.5C 89.9505,122.216 95.2838,116.716 102.5,113C 118.729,108.042 131.396,112.542 140.5,126.5 Z"/></g>
<g><path style="opacity:1" fill="#64e12a" d="M 127.5,128.5 C 118.833,136.833 110.167,145.167 101.5,153.5C 93.5168,144.913 93.5168,136.246 101.5,127.5C 107.746,122.306 114.746,121.139 122.5,124C 124.66,124.996 126.327,126.496 127.5,128.5 Z"/></g>
<g><path style="opacity:1" fill="#91fb59" d="M 127.5,128.5 C 131.331,131.507 132.998,135.507 132.5,140.5C 131.294,154.528 123.628,160.695 109.5,159C 106.244,157.884 103.578,156.051 101.5,153.5C 110.167,145.167 118.833,136.833 127.5,128.5 Z"/></g>
<g><path style="opacity:1" fill="#35383c" d="M 363.5,365.5 C 338.716,400.568 304.716,419.568 261.5,422.5C 261.5,431.167 261.5,439.833 261.5,448.5C 261.789,451.649 261.289,454.649 260,457.5C 257,460.167 254,460.167 251,457.5C 249.711,454.649 249.211,451.649 249.5,448.5C 249.5,439.833 249.5,431.167 249.5,422.5C 207.228,419.538 173.562,401.205 148.5,367.5C 114.685,312.997 116.852,259.997 155,208.5C 197.428,162.935 247.928,150.768 306.5,172C 356.867,196.036 383.534,236.036 386.5,292C 385.844,318.82 378.177,343.32 363.5,365.5 Z"/></g>
<g><path style="opacity:1" fill="#a4b8be" d="M 91.5,160.5 C 106.224,173.433 121.224,173.766 136.5,161.5C 135.552,165.888 133.219,169.388 129.5,172C 112.657,181.278 99.9906,177.445 91.5,160.5 Z"/></g>
<g><path style="opacity:1" fill="#fd8d8d" d="M 364.5,244.5 C 343.471,219.808 316.805,204.641 284.5,199C 242.045,191.756 203.045,200.09 167.5,224C 159.969,230.365 152.969,237.199 146.5,244.5C 164.821,205.026 195.487,181.526 238.5,174C 291.621,169.311 332.121,189.478 360,234.5C 361.786,237.736 363.286,241.07 364.5,244.5 Z"/></g>
<g><path style="opacity:1" fill="#fe1a1a" d="M 364.5,244.5 C 370.789,257.761 374.122,271.761 374.5,286.5C 350.167,286.5 325.833,286.5 301.5,286.5C 298.279,265.913 286.612,252.746 266.5,247C 241.474,242.762 223.308,251.929 212,274.5C 210.228,278.313 209.395,282.313 209.5,286.5C 185.167,286.5 160.833,286.5 136.5,286.5C 136.878,271.761 140.211,257.761 146.5,244.5C 152.969,237.199 159.969,230.365 167.5,224C 203.045,200.09 242.045,191.756 284.5,199C 316.805,204.641 343.471,219.808 364.5,244.5 Z"/></g>
<g><path style="opacity:1" fill="#d6e3e8" d="M 280.5,267.5 C 263.5,283.833 246.833,300.5 230.5,317.5C 220.589,306.594 217.756,293.928 222,279.5C 232.207,259.314 248.04,252.814 269.5,260C 273.894,261.582 277.561,264.082 280.5,267.5 Z"/></g>
<g><path style="opacity:1" fill="#fdfdfd" d="M 280.5,267.5 C 294.497,283.242 294.997,299.575 282,316.5C 270.738,327.248 257.571,330.415 242.5,326C 237.906,323.882 233.906,321.048 230.5,317.5C 246.833,300.5 263.5,283.833 280.5,267.5 Z"/></g>
<g><path style="opacity:1" fill="#949da2" d="M 136.5,298.5 C 148.495,297.833 160.662,297.5 173,297.5C 185.519,297.501 197.686,298.168 209.5,299.5C 185.241,298.51 160.908,298.177 136.5,298.5 Z"/></g>
<g><path style="opacity:1" fill="#959ea3" d="M 374.5,298.5 C 350.5,298.5 326.5,298.5 302.5,298.5C 302.737,299.791 302.404,300.791 301.5,301.5C 301.5,300.167 301.5,298.833 301.5,297.5C 326.006,297.169 350.339,297.502 374.5,298.5 Z"/></g>
<g><path style="opacity:1" fill="#d7e4e9" d="M 136.5,298.5 C 160.908,298.177 185.241,298.51 209.5,299.5C 210.309,306.752 212.642,313.419 216.5,319.5C 225.369,340.776 241.369,349.943 264.5,347C 279.481,343.183 289.481,334.016 294.5,319.5C 297.608,313.849 299.942,307.849 301.5,301.5C 302.404,300.791 302.737,299.791 302.5,298.5C 326.5,298.5 350.5,298.5 374.5,298.5C 374.094,313.794 370.427,328.128 363.5,341.5C 334.326,373.115 297.493,388.448 253,387.5C 210.311,387.534 175.144,372.2 147.5,341.5C 140.573,328.128 136.906,313.794 136.5,298.5 Z"/></g>
<g><path style="opacity:1" fill="#a5b9bf" d="M 216.5,319.5 C 233.112,339.477 253.446,344.31 277.5,334C 284.022,330.086 289.689,325.253 294.5,319.5C 289.481,334.016 279.481,343.183 264.5,347C 241.369,349.943 225.369,340.776 216.5,319.5 Z"/></g>
<g><path style="opacity:1" fill="#fcfcfc" d="M 363.5,341.5 C 344.49,381.641 312.823,404.808 268.5,411C 218.718,414.026 180.218,394.859 153,353.5C 150.881,349.598 149.048,345.598 147.5,341.5C 175.144,372.2 210.311,387.534 253,387.5C 297.493,388.448 334.326,373.115 363.5,341.5 Z"/></g>
<g><path style="opacity:1" fill="#d6e3e8" d="M 148.5,367.5 C 173.562,401.205 207.228,419.538 249.5,422.5C 249.5,431.167 249.5,439.833 249.5,448.5C 203.539,444.113 170.706,421.113 151,379.5C 149.98,375.958 148.813,372.458 147.5,369C 147.57,368.235 147.903,367.735 148.5,367.5 Z"/></g>
<g><path style="opacity:1" fill="#d6e3e8" d="M 363.5,365.5 C 364.097,365.735 364.43,366.235 364.5,367C 347.626,416.117 313.292,443.284 261.5,448.5C 261.5,439.833 261.5,431.167 261.5,422.5C 304.716,419.568 338.716,400.568 363.5,365.5 Z"/></g>
<g><path style="opacity:1" fill="#35383c" d="M 381.5,392.5 C 395.171,392.333 408.837,392.5 422.5,393C 427.408,395.873 427.741,399.206 423.5,403C 409.5,403.667 395.5,403.667 381.5,403C 377.565,399.504 377.565,396.004 381.5,392.5 Z"/></g>
<g><path style="opacity:1" fill="#393d41" d="M 382.5,414.5 C 395.837,414.333 409.171,414.5 422.5,415C 426.738,417.172 427.572,420.338 425,424.5C 424.25,425.126 423.416,425.626 422.5,426C 409.167,426.667 395.833,426.667 382.5,426C 377.248,422.173 377.248,418.34 382.5,414.5 Z"/></g>
<g><path style="opacity:1" fill="#35383c" d="M 381.5,437.5 C 395.504,437.333 409.504,437.5 423.5,438C 427.582,441.697 427.249,445.03 422.5,448C 409.167,448.667 395.833,448.667 382.5,448C 377.686,444.914 377.352,441.414 381.5,437.5 Z"/></g>
</svg>
